<svg id="Capa_1" enable-background="new 0 0 512 512" height="512" viewBox="0 0 512 512" width="512" xmlns="http://www.w3.org/2000/svg"><g><path d="m488.63 294.921v-156.401c0-4.142-3.358-7.5-7.5-7.5s-7.5 3.358-7.5 7.5v150.263c-8.17-1.396-18.4-1.396-26.57.001v-51.934c0-4.142-3.358-7.5-7.5-7.5h-24.83v-147.95c0-34.077 25.806-62.241 58.9-65.979v90.409c0 4.142 3.358 7.5 7.5 7.5s7.5-3.358 7.5-7.5v-98.33c0-4.142-3.358-7.5-7.5-7.5-44.884 0-81.4 36.516-81.4 81.4v155.45c0 4.142 3.358 7.5 7.5 7.5h24.83v50.573c-9.759 6.777-16.166 18.059-16.166 30.815v141.81c0 24.511 19.941 44.452 44.453 44.452s44.452-19.941 44.452-44.452v-141.81c.001-12.757-6.408-24.04-16.169-30.817zm1.17 172.627c0 16.24-13.212 29.452-29.452 29.452s-29.453-13.212-29.453-29.452v-141.81c0-12.407 10.093-22.5 22.5-22.5h13.905c12.407 0 22.5 10.093 22.5 22.5z"/><path d="m164.7 48.36c4.142 0 7.5-3.358 7.5-7.5v-17.86c-1.294-13.703-8.794-21.203-22.5-22.5-12.407 0-22.5 10.093-22.5 22.5v91.39c-.432 4.57-2.932 7.07-7.5 7.5-4.136 0-7.5-3.364-7.5-7.5v-91.39c-1.294-13.703-8.794-21.203-22.5-22.5-12.406 0-22.5 10.093-22.5 22.5v91.39c-.432 4.57-2.932 7.07-7.5 7.5-4.136 0-7.5-3.364-7.5-7.5v-91.39c-1.293-13.703-8.793-21.203-22.5-22.5-12.406 0-22.5 10.093-22.5 22.5v84.94c0 39.379 16.316 75.617 42.579 94.571 6.057 4.374 9.531 10.672 9.531 17.279v76.688c-8.565 6.879-14.062 17.428-14.062 29.242v141.81c0 24.511 19.941 44.452 44.453 44.452s44.452-19.941 44.452-44.452v-141.81c0-11.815-5.498-22.364-14.063-29.243v-76.687c0-6.607 3.474-12.906 9.529-17.278 26.265-18.956 42.581-55.193 42.581-94.572v-34.4c0-4.142-3.358-7.5-7.5-7.5s-7.5 3.358-7.5 7.5v34.4c0 34.646-13.932 66.223-36.361 82.41-10.009 7.228-15.75 17.958-15.75 29.44v69.399c-8.96-2.069-21.82-2.069-30.78 0v-69.399c0-11.482-5.74-22.213-15.751-29.441-22.425-16.186-36.358-47.763-36.358-82.409v-84.94c0-4.136 3.364-7.5 7.5-7.5 4.564.44 7.064 2.94 7.5 7.5v91.39c0 12.407 10.093 22.5 22.5 22.5 13.71-1.288 21.21-8.788 22.5-22.5v-91.39c0-4.136 3.364-7.5 7.5-7.5 4.564.44 7.064 2.94 7.5 7.5v91.39c0 12.407 10.093 22.5 22.5 22.5 13.71-1.288 21.21-8.788 22.5-22.5v-91.39c0-4.136 3.364-7.5 7.5-7.5 4.564.44 7.064 2.94 7.5 7.5v17.86c0 4.142 3.358 7.5 7.5 7.5zm-68.047 254.86c12.407 0 22.5 10.093 22.5 22.5v141.81c0 16.24-13.212 29.452-29.452 29.452s-29.453-13.212-29.453-29.452v-141.81c0-12.407 10.093-22.5 22.5-22.5z"/><path d="m322.642 14.579c-23.615-18.608-54.275-18.849-78.084-.635l-.935.709c-27.259 20.859-43.533 56.151-43.533 94.406 0 18.494 3.923 36.883 11.343 53.175 7.471 16.426 18.415 30.538 31.626 40.792 6.645 5.242 12.381 11.919 12.381 21.033v70.86c-9.762 6.777-16.171 18.061-16.171 30.819v141.81c0 24.511 19.941 44.452 44.453 44.452s44.452-19.941 44.452-44.452v-141.81c0-12.755-6.406-24.036-16.164-30.814v-31.274c0-4.142-3.358-7.5-7.5-7.5s-7.5 3.358-7.5 7.5v25.135c-8.17-1.397-18.4-1.396-26.57-.001v-64.724c0-13.518-8.046-24.877-18.161-32.865-11.321-8.787-20.724-20.949-27.193-35.174-6.539-14.358-9.996-30.597-9.996-46.961 0-33.616 14.074-64.455 37.623-82.475l.935-.709c18.214-13.935 41.652-13.745 59.712.485 23 18.117 36.731 48.688 36.731 81.778.268 31.046-12.422 64.343-37.758 83.497-9.737 7.53-15.322 18.739-15.322 30.753v8.57c0 4.142 3.358 7.5 7.5 7.5s7.5-3.358 7.5-7.5v-8.57c0-7.317 3.445-14.186 9.455-18.854 29.021-21.807 43.887-59.874 43.625-95.396-.001-37.647-15.87-72.623-42.449-93.56zm-31.968 288.659c12.153 0 22.5 10.125 22.5 22.5v141.81c0 16.24-13.212 29.452-29.452 29.452-16.24 0-29.452-13.212-29.452-29.452v-141.81c0-12.407 10.093-22.5 22.5-22.5z"/></g></svg>