<svg id="Capa_1" enable-background="new 0 0 512 512" height="512" viewBox="0 0 512 512" width="512" xmlns="http://www.w3.org/2000/svg"><g><g><path d="m494.004 307.978 16.044-44.095c.075-.206.141-.415.197-.627 4.435-16.58-.699-34.058-13.397-45.614-.184-.167-.375-.325-.575-.473l-30.074-22.346c-3.973-3.698-6.895-8.383-8.46-13.576l-9.54-31.529c-4.709-15.575-17.479-27.561-33.324-31.281l-36.118-8.48c-5.084-1.195-9.81-3.682-13.667-7.195l-26.98-24.558c-11.593-10.558-27.557-14.42-42.69-10.337l-34.42 9.27c-4 1.077-6.369 5.192-5.292 9.192s5.197 6.368 9.192 5.292l34.424-9.271c10.171-2.745 20.897-.15 28.687 6.945l12.792 11.644c-34.032.796-61.919 26.845-65.598 60.105-17.971-.096-36.218-.684-54.154.6-2.73-13.985-9.813-26.778-20.417-36.594-11.705-10.835-26.707-17.121-42.559-17.904l15.764-15.33c7.554-7.345 18.188-10.293 28.445-7.886l26.26 6.17c4.028.943 8.069-1.553 9.017-5.586.948-4.032-1.553-8.069-5.585-9.017l-26.263-6.17c-15.264-3.581-31.089.805-42.331 11.735l-26.144 25.424c-3.867 3.689-8.344 6.236-13.431 7.642l-35.84 9.66c-15.71 4.235-28.076 16.63-32.273 32.346l-8.5 31.822c-1.428 5.349-4.29 10.229-8.271 14.105l-24.046 23.365c-12.3 11.975-16.855 29.615-11.86 46.116l13.049 41.438c-10.584 27.263-16.066 56.385-16.066 86.139 0 25.701 20.909 46.61 46.61 46.61h339.58c4.143 0 7.5-3.358 7.5-7.5s-3.357-7.5-7.5-7.5h-339.58c-17.43 0-31.61-14.18-31.61-31.61 0-44.334 12.976-87.168 37.524-123.87 2.303-3.443 1.378-8.101-2.064-10.404-3.443-2.303-8.101-1.379-10.404 2.064-5.474 8.185-10.401 16.658-14.784 25.369l-7.923-25.161c-3.34-11.035-.276-22.892 7.988-30.939l24.046-23.366c5.925-5.769 10.179-13.027 12.304-20.987l8.5-31.821c3.59-13.443 15.816-21.606 28.851-23.665-7.538 10.907-11.967 24.118-11.967 38.35 0 11.87 3.044 23.293 8.846 33.444-10.095 7.526-19.881 16.048-28.637 25.131-2.874 2.982-2.787 7.73.195 10.604 2.985 2.875 7.731 2.788 10.605-.195 41.659-42.991 100.152-67.645 160.02-67.645h35.8c123.018 0 223.1 100.078 223.1 223.09 0 17.247-14.365 31.61-31.61 31.61h-46.52c-4.143 0-7.5 3.358-7.5 7.5s3.357 7.5 7.5 7.5h46.52c25.43 0 46.61-21.179 46.61-46.61 0-31.789-6.189-62.628-17.996-91.14zm-376.745-114.048c-3.027 1.787-6.02 3.646-8.973 5.572-13.715-25.529-2.347-59.925 23.943-72.393 1.161-.448 2.309-.93 3.429-1.47 29.109-11.341 63.568 7.141 70.395 37.552-31.301 4.238-61.527 14.654-88.794 30.739zm225.141-78.031c29.021 0 52.63 23.61 52.63 52.63 0 7.885-1.749 15.571-5.09 22.58-30.412-17.024-64.295-27.133-99.689-29.518 3.408-25.751 25.487-45.692 52.149-45.692zm60.436 82.983c4.721-9.368 7.194-19.724 7.194-30.354 0-14.38-4.525-27.716-12.207-38.687 14.854 1.095 31.396 8.936 36.018 24.219l9.538 31.523c2.022 6.705 7.494 16.541 13.559 21.045l30.073 22.346c8.267 7.694 11.63 19.171 8.823 30.105l-10.817 29.729c-18.954-36.167-47.885-67.747-82.181-89.926z"/><path d="m88.45 370.442c-4.143 0-7.5 3.358-7.5 7.5s3.357 7.5 7.5 7.5c15.163 0 27.5-12.336 27.5-27.5s-12.337-27.5-27.5-27.5c-4.143 0-7.5 3.358-7.5 7.5s3.357 7.5 7.5 7.5c6.893 0 12.5 5.607 12.5 12.5s-5.607 12.5-12.5 12.5z"/><path d="m258.063 370.442c-4.143 0-7.5 3.358-7.5 7.5s3.357 7.5 7.5 7.5c15.163 0 27.5-12.336 27.5-27.5s-12.337-27.5-27.5-27.5c-4.143 0-7.5 3.358-7.5 7.5s3.357 7.5 7.5 7.5c6.893 0 12.5 5.607 12.5 12.5s-5.608 12.5-12.5 12.5z"/><path d="m174.217 273.972c-4.143 0-7.5 3.358-7.5 7.5s3.357 7.5 7.5 7.5c15.163 0 27.5-12.336 27.5-27.5s-12.337-27.5-27.5-27.5c-4.143 0-7.5 3.358-7.5 7.5s3.357 7.5 7.5 7.5c6.893 0 12.5 5.607 12.5 12.5s-5.608 12.5-12.5 12.5z"/><path d="m342.402 304.62c-4.143 0-7.5 3.358-7.5 7.5s3.357 7.5 7.5 7.5c15.163 0 27.5-12.336 27.5-27.5s-12.337-27.5-27.5-27.5c-4.143 0-7.5 3.358-7.5 7.5s3.357 7.5 7.5 7.5c6.893 0 12.5 5.607 12.5 12.5s-5.607 12.5-12.5 12.5z"/></g><path d="m186.091 362.287c-4.142 0-7.5-3.358-7.5-7.5 0-4.142 3.358-7.5 7.5-7.5 4.142 0 7.5 3.358 7.5 7.5 0 4.142-3.358 7.5-7.5 7.5z"/><path d="m354.903 385.442c-4.142 0-7.5-3.358-7.5-7.5 0-4.142 3.358-7.5 7.5-7.5 4.142 0 7.5 3.358 7.5 7.5 0 4.142-3.358 7.5-7.5 7.5z"/><path d="m275.091 259.939c-4.142 0-7.5-3.358-7.5-7.5 0-4.142 3.358-7.5 7.5-7.5 4.142 0 7.5 3.358 7.5 7.5 0 4.142-3.358 7.5-7.5 7.5z"/><path d="m423.55 327.12c-4.142 0-7.5-3.358-7.5-7.5 0-4.142 3.358-7.5 7.5-7.5 4.142 0 7.5 3.358 7.5 7.5 0 4.142-3.358 7.5-7.5 7.5z"/></g></svg>