<svg id="Capa_1" enable-background="new 0 0 511.641 511.641" height="512" viewBox="0 0 511.641 511.641" width="512" xmlns="http://www.w3.org/2000/svg"><g><path d="m383.321 295.68c0-4.142-3.357-7.5-7.5-7.5s-7.5 3.358-7.5 7.5v50.638l-225-67.188v-67.87h225v51.73c0 4.142 3.357 7.5 7.5 7.5s7.5-3.358 7.5-7.5v-59.23c0-4.142-3.357-7.5-7.5-7.5h-6.5v-188.76c0-4.142-3.357-7.5-7.5-7.5h-212c-4.143 0-7.5 3.358-7.5 7.5v28.1c0 4.142 3.357 7.5 7.5 7.5s7.5-3.358 7.5-7.5v-20.6h91v83.127h-91v-29.847c0-4.142-3.357-7.5-7.5-7.5s-7.5 3.358-7.5 7.5v127.98h-6.5c-4.143 0-7.5 3.358-7.5 7.5v300c0 7.87 7.375 10.245 12.804 5.303l15-15c6.464-5.365 12.928-5.365 19.393 0 5.422 5.421 12.632 8.407 20.304 8.407s14.882-2.985 20.304-8.407c6.464-5.365 12.928-5.365 19.393 0 5.422 5.421 12.632 8.407 20.304 8.407s14.882-2.985 20.304-8.407c6.464-5.365 12.928-5.365 19.393 0 5.422 5.421 12.632 8.407 20.304 8.407s14.882-2.985 20.307-8.41c6.464-5.358 12.927-5.357 19.39.003l15 15c4.929 4.941 12.804 2.566 12.804-5.303v-208.08zm-120-99.42v-83.133h91v83.133zm0-181.26h91v83.127h-91zm-106 98.127h91v83.133h-91zm208.806 370.333c-5.422-5.428-12.634-8.417-20.307-8.417s-14.885 2.99-20.304 8.415c-6.464 5.351-12.928 5.351-19.393 0-5.428-5.428-12.638-8.417-20.304-8.417s-14.876 2.989-20.304 8.417c-6.464 5.351-12.928 5.351-19.393 0-5.428-5.428-12.638-8.417-20.304-8.417s-14.876 2.989-20.304 8.417c-6.464 5.351-12.928 5.351-19.393 0-5.428-5.428-12.638-8.417-20.304-8.417-8.542 0-16.767 4.494-22.5 10.614v-34.925h39.14c4.143 0 7.5-3.358 7.5-7.5s-3.357-7.5-7.5-7.5h-39.14v-140.945l225 67.188v73.758h-153.17c-4.143 0-7.5 3.358-7.5 7.5s3.357 7.5 7.5 7.5h153.17v34.924z"/></g></svg>