<svg id="Capa_1" enable-background="new 0 0 512 512" height="512" viewBox="0 0 512 512" width="512" xmlns="http://www.w3.org/2000/svg"><g><path d="m385.958 227.328v-38.946c0-15.732-9.758-29.219-23.536-34.751 9.145-6.654 16.77-16.894 20.442-27.568 1.345-3.91-.734-8.171-4.644-9.516-3.909-1.347-8.171.734-9.516 4.644-5.602 16.279-22.503 28.273-39.653 28.273-23.126 0-41.941-18.815-41.941-41.941 0-22.881 19.063-41.931 41.941-41.931 16.999 0 33.834 11.822 39.525 27.906 1.379 3.898 5.657 5.941 9.556 4.561 3.898-1.379 5.941-5.658 4.561-9.556-5.136-14.519-17.012-27.2-31.179-33.287v-32.753c-1.287-13.687-8.774-21.175-22.464-22.463-12.386 0-22.463 10.077-22.463 22.463v32.754c-19.986 8.585-34.453 30.566-34.453 52.306 0 18.941 9.308 35.739 23.581 46.091-13.8 5.521-23.579 19.02-23.579 34.768v38.946c0 15.749 9.78 29.249 23.582 34.769-14.273 10.351-23.582 27.148-23.582 46.088 0 23.408 14.209 43.554 34.451 52.283v129.068c0 12.386 10.077 22.463 22.463 22.463s22.463-10.077 22.463-22.463v-49.249c0-4.135-3.352-7.488-7.488-7.488-4.135 0-7.488 3.352-7.488 7.488v49.249c0 4.129-3.359 7.488-7.488 7.488s-7.488-3.359-7.488-7.488v-124.946c4.992.677 9.984.677 14.975-.001v43.062c0 4.135 3.352 7.488 7.488 7.488 4.135 0 7.488-3.352 7.488-7.488v-47.185c20.239-8.731 34.445-28.875 34.445-52.28 0-18.94-9.309-35.738-23.582-46.088 13.803-5.521 23.583-19.02 23.583-34.77zm-64.396-204.865c0-4.129 3.359-7.488 7.488-7.488 4.563.431 7.058 2.927 7.488 7.488v28.654c-4.992-.667-9.984-.667-14.975 0v-28.654zm49.421 285.723c0 23.124-18.812 41.936-41.936 41.936-23.123 0-41.936-18.812-41.936-41.936s18.812-41.936 41.936-41.936c23.123 0 41.936 18.812 41.936 41.936zm0-80.858c0 12.386-10.077 22.463-22.463 22.463h-38.945c-12.386 0-22.463-10.077-22.463-22.463v-38.946c0-12.386 10.077-22.463 22.463-22.463h38.945c12.386 0 22.463 10.077 22.463 22.463z"/><path d="m216.28 253.945c14.274-10.351 23.584-27.149 23.584-46.09 0-18.94-9.309-35.738-23.582-46.089 13.802-5.52 23.582-19.02 23.582-34.769v-38.945c0-19.637-15.2-35.78-34.451-37.309v-28.28c0-5.998-2.336-11.637-6.576-15.877-4.246-4.247-9.888-6.586-15.887-6.586-12.386 0-22.463 10.077-22.463 22.463v28.281c-19.248 1.532-34.445 17.673-34.445 37.308v38.945c0 15.75 9.78 29.249 23.582 34.769-14.274 10.351-23.582 27.149-23.582 46.089 0 18.942 9.31 35.74 23.585 46.091-13.803 5.52-23.584 19.02-23.584 34.77v3.155c0 4.135 3.352 7.488 7.488 7.488 4.135 0 7.488-3.352 7.488-7.488v-3.155c0-12.386 10.077-22.463 22.463-22.463h38.946c12.386 0 22.463 10.077 22.463 22.463v38.946c0 12.386-10.077 22.463-22.463 22.463h-38.946c-12.386 0-22.463-10.077-22.463-22.463v-3.154c0-4.135-3.352-7.488-7.488-7.488-4.135 0-7.488 3.352-7.488 7.488v3.154c0 19.635 15.196 35.776 34.444 37.308v124.567c0 12.386 10.077 22.463 22.463 22.463s22.463-10.077 22.463-22.463v-124.566c19.252-1.528 34.453-17.671 34.453-37.309v-38.946c0-15.751-9.782-29.251-23.586-34.771zm-33.33-238.97c4.562.431 7.058 2.927 7.488 7.488v28.15h-14.975v-28.15c-.001-4.129 3.358-7.488 7.487-7.488zm-41.933 112.022v-38.945c0-12.386 10.077-22.463 22.463-22.463h38.945c12.386 0 22.463 10.077 22.463 22.463v38.945c0 12.386-10.077 22.463-22.463 22.463h-38.945c-12.386 0-22.463-10.076-22.463-22.463zm0 80.858c0-23.124 18.812-41.936 41.936-41.936 23.123 0 41.936 18.812 41.936 41.936s-18.812 41.936-41.936 41.936c-23.123 0-41.936-18.812-41.936-41.936zm41.933 289.17c-4.129 0-7.488-3.359-7.488-7.488v-124.436h14.975v124.436c.001 4.128-3.358 7.488-7.487 7.488z"/></g></svg>