<svg id="Capa_1" enable-background="new 0 0 512 512" height="512" viewBox="0 0 512 512" width="512" xmlns="http://www.w3.org/2000/svg"><g><path d="m484.5 410.939h-18.503c4.866-6.458 7.503-14.276 7.503-22.5 0-12.249-5.904-23.144-15.015-29.991 8.903-6.702 15.015-18.957 15.015-30.009 0-12.249-5.904-23.144-15.015-29.991 8.903-6.702 15.015-18.957 15.015-30.009 0-12.249-5.904-23.144-15.015-29.991 8.903-6.702 15.015-18.957 15.015-30.009 0-10.788-4.586-20.521-11.903-27.369 7.184-4.966 11.903-13.256 11.903-22.631-1.576-16.758-10.743-25.924-27.5-27.5h-48.66c-4.143 0-7.5 3.358-7.5 7.5s3.357 7.5 7.5 7.5h48.66c7.615.718 11.782 4.885 12.5 12.5 0 6.893-5.607 12.5-12.5 12.5h-81.5c-15.163 0-27.5 12.336-27.5 27.5v110c-.718 7.615-4.885 11.782-12.5 12.5-6.893 0-12.5-5.607-12.5-12.5v-80c-1.576-16.758-10.743-25.924-27.5-27.5-15.163 0-27.5 12.336-27.5 27.5v20c-.718 7.616-4.885 11.782-12.5 12.5-6.893 0-12.5-5.607-12.5-12.5v-50c0-15.164-12.336-27.5-27.5-27.5h-26.25c-15.301 0-27.75 12.449-27.75 27.75v169.5c-.727 7.77-4.977 12.02-12.75 12.75-7.03 0-12.75-5.72-12.75-12.75v-83.41c0-4.142-3.358-7.5-7.5-7.5s-7.5 3.358-7.5 7.5v6.16h-34c-12.407 0-22.5-10.093-22.5-22.5 1.291-13.709 8.791-21.209 22.5-22.5h34v6.15c0 4.142 3.358 7.5 7.5 7.5s7.5-3.358 7.5-7.5v-53.4c0-15.301-12.449-27.75-27.75-27.75h-31.25c-7.616-.717-11.782-4.884-12.5-12.5 0-6.893 5.607-12.5 12.5-12.5h298.66c4.143 0 7.5-3.358 7.5-7.5s-3.357-7.5-7.5-7.5h-75.447c9.202-8.778 14.954-21.143 14.954-34.835 0-24.008-17.657-43.966-40.667-47.579v-15.297c0-6.709 5.458-12.167 12.167-12.167 4.143 0 7.5-3.358 7.5-7.5s-3.357-7.5-7.5-7.5c-14.98 0-27.167 12.187-27.167 27.167v15.297c-23.01 3.613-40.667 23.571-40.667 47.579 0 13.691 5.751 26.057 14.954 34.835h-156.787c-15.164 0-27.5 12.336-27.5 27.5.618 10.005 4.579 17.549 11.883 22.633-7.117 6.674-11.883 17.796-11.883 27.367 0 12.249 5.904 23.144 15.015 29.992-8.903 6.701-15.015 18.957-15.015 30.008 0 12.249 5.904 23.144 15.015 29.992-8.903 6.701-15.015 18.957-15.015 30.008 0 12.249 5.904 23.144 15.015 29.992-8.903 6.701-15.015 18.957-15.015 30.008 0 8.436 2.801 16.228 7.52 22.5h-18.52c-16.758 1.576-25.925 10.742-27.5 27.5 0 15.164 12.336 27.5 27.5 27.5h13.865l17.927 35.854c1.27 2.541 3.867 4.146 6.708 4.146h380c2.841 0 5.438-1.605 6.708-4.146l17.927-35.854h13.865c16.758-1.576 25.924-10.742 27.5-27.5 0-15.163-12.336-27.5-27.5-27.5zm-228.5-348.001c18.288 0 33.167 14.878 33.167 33.167s-14.879 33.167-33.167 33.167c-18.289 0-33.167-14.878-33.167-33.167s14.878-33.167 33.167-33.167zm-202.5 145.501c0-6.006 2.342-11.655 6.593-15.907 4.252-4.251 9.901-6.593 15.907-6.593h21.25c7.03 0 12.75 5.72 12.75 12.75v32.25h-34c-12.407 0-22.5-10.093-22.5-22.5zm405 60c-1.291 13.709-8.791 21.209-22.5 22.5h-84v-45h84c12.406 0 22.5 10.093 22.5 22.5zm-94-82.5h71.5c12.406 0 22.5 10.093 22.5 22.5-1.291 13.709-8.791 21.209-22.5 22.5h-84v-32.5c0-6.892 5.607-12.5 12.5-12.5zm-40 150c16.758-1.576 25.924-10.742 27.5-27.5v-2.5h84c12.406 0 22.5 10.093 22.5 22.5-1.291 13.709-8.791 21.209-22.5 22.5h-270.5v-45h131.5v2.5c0 15.164 12.337 27.5 27.5 27.5zm-40-120c7.615.718 11.782 4.885 12.5 12.5v2.5h-25v-2.5c0-6.892 5.607-12.5 12.5-12.5zm-40 60c16.758-1.576 25.924-10.742 27.5-27.5v-2.5h25v45h-131.5v-45h51.5v2.5c0 15.164 12.336 27.5 27.5 27.5zm-66.25-90h26.25c6.893 0 12.5 5.607 12.5 12.5v32.5h-51.5v-32.25c0-7.03 5.72-12.75 12.75-12.75zm-124.75 142.5c1.291-13.709 8.791-21.209 22.5-22.5h34v45h-34c-12.407 0-22.5-10.093-22.5-22.5zm0 60c1.291-13.709 8.791-21.209 22.5-22.5h34v2.25c0 15.301 12.449 27.75 27.75 27.75 16.916-1.587 26.166-10.837 27.75-27.75v-2.25h270.5c12.406 0 22.5 10.093 22.5 22.5-1.291 13.709-8.791 21.209-22.5 22.5h-360c-12.407 0-22.5-10.093-22.5-22.5zm431 62.5h-141.34c-4.143 0-7.5 3.358-7.5 7.5s3.357 7.5 7.5 7.5h110.705l-12.5 25h-370.73l-12.5-25h252.335c4.143 0 7.5-3.358 7.5-7.5s-3.357-7.5-7.5-7.5h-282.97c-6.893 0-12.5-5.607-12.5-12.5.717-7.616 4.884-11.782 12.5-12.5h457c6.893 0 12.5 5.607 12.5 12.5 0 6.811-5.417 12.5-12.5 12.5z"/></g></svg>