<svg id="Capa_1" enable-background="new 0 0 512 512" height="512" viewBox="0 0 512 512" width="512" xmlns="http://www.w3.org/2000/svg"><g><g><path d="m481.02 375.05c0-4.142-3.358-7.5-7.5-7.5s-7.5 3.358-7.5 7.5v41.95h-32.498c-4.142 0-7.5 3.358-7.5 7.5v20c0 6.893-5.607 12.5-12.5 12.5h-20c-4.142 0-7.5 3.358-7.5 7.5v32.5h-225v-32.5c0-4.142-3.358-7.5-7.5-7.5h-20c-6.893 0-12.5-5.607-12.5-12.5v-20c0-4.142-3.358-7.5-7.5-7.5h-32.502v-322h32.502c4.142 0 7.5-3.358 7.5-7.5v-20c0-6.893 5.607-12.5 12.5-12.5h20c4.142 0 7.5-3.358 7.5-7.5v-32.5h151.808c4.142 0 7.5-3.358 7.5-7.5s-3.358-7.5-7.5-7.5h-239.308-.002c-4.142 0-7.5 3.358-7.5 7.5v130.12h-7.542c-16.757 1.576-25.924 10.742-27.5 27.5 0 15.164 12.336 27.5 27.5 27.5h7.542v35.88h-7.542c-16.757 1.576-25.924 10.742-27.5 27.5 0 15.164 12.336 27.5 27.5 27.5h7.542v35.88h-7.542c-16.757 1.576-25.924 10.743-27.5 27.5 0 15.164 12.336 27.5 27.5 27.5h7.542v130.12c0 4.142 3.358 7.5 7.5 7.5h.002 399.998.002c4.142 0 7.5-3.358 7.5-7.5zm-334.998-360.05v25h-12.5c-15.164 0-27.5 12.336-27.5 27.5v12.5h-25v-65zm-87.544 162.62c-6.893 0-12.5-5.607-12.5-12.5.718-7.616 4.885-11.782 12.5-12.5h7.542v25zm0 90.88c-6.893 0-12.5-5.607-12.5-12.5.718-7.616 4.884-11.782 12.5-12.5h7.542v25zm0 90.88c-6.893 0-12.5-5.607-12.5-12.5.718-7.615 4.885-11.782 12.5-12.5h7.542v25zm22.544 137.62v-65h25v12.5c0 15.164 12.336 27.5 27.5 27.5h12.5v25zm320 0v-25h12.5c15.164 0 27.5-12.336 27.5-27.5v-12.5h24.998v65z"/><path d="m473.522 0h-.002-128.01c-4.142 0-7.5 3.358-7.5 7.5s3.358 7.5 7.5 7.5h40.512v32.5c0 4.142 3.358 7.5 7.5 7.5h20c6.893 0 12.5 5.607 12.5 12.5v20c0 4.142 3.358 7.5 7.5 7.5h32.498v247.36c0 4.142 3.358 7.5 7.5 7.5s7.5-3.358 7.5-7.5l.002-334.86c0-4.142-3.358-7.5-7.5-7.5zm-32.5 80v-12.5c0-15.164-12.336-27.5-27.5-27.5h-12.5v-25h64.998v65z"/></g><g><path d="m403.52 226.833h-7.734c-3.324-54.754-42.77-99.915-94.764-111.886v-13.614c-1.576-16.758-10.743-25.924-27.5-27.5-15.164 0-27.5 12.336-27.5 27.5v13.614c-51.993 11.971-91.44 57.132-94.764 111.886h-7.738c-4.142 0-7.5 3.358-7.5 7.5v10c0 20.307 16.917 37.5 37.5 37.5h200c20.678 0 37.5-16.822 37.5-37.5v-10c0-4.142-3.358-7.5-7.5-7.5zm-142.498-125.5c0-6.893 5.607-12.5 12.5-12.5 7.616.718 11.782 4.884 12.5 12.5v11.133c-8.333-.844-16.667-.844-25 0zm134.998 143c0 12.407-10.093 22.5-22.5 22.5h-200c-14.08-1.709-21.58-9.209-22.5-22.5v-2.5h42.15c4.142 0 7.5-3.358 7.5-7.5s-3.358-7.5-7.5-7.5h-26.882c3.864-55.79 50.48-100 107.234-100s103.37 44.21 107.234 100h-154.896c-4.142 0-7.5 3.358-7.5 7.5s3.358 7.5 7.5 7.5h170.16z"/><path d="m347.428 321.083h-147.812c-4.142 0-7.5 3.358-7.5 7.5v56.914c0 4.142 3.358 7.5 7.5 7.5h147.812c4.142 0 7.5-3.358 7.5-7.5v-56.914c0-4.142-3.358-7.5-7.5-7.5zm-7.5 56.914h-132.812v-41.914h132.812z"/><path d="m324.165 428.771h-96.829c-4.142 0-7.5 3.358-7.5 7.5s3.358 7.5 7.5 7.5h96.829c4.142 0 7.5-3.358 7.5-7.5s-3.358-7.5-7.5-7.5z"/></g></g></svg>