<svg id="Capa_1" enable-background="new 0 0 512 512" height="512" viewBox="0 0 512 512" width="512" xmlns="http://www.w3.org/2000/svg"><g><path d="m338.179 150.033v-22.531c0-20.597-16.757-37.354-37.354-37.354h-8.838l-18.733-84.298c-.76-3.418-3.791-5.85-7.293-5.85h-19.922c-3.501 0-6.533 2.432-7.293 5.85l-6.345 28.549c-.895 4.028 1.644 8.019 5.672 8.914 4.023.895 8.018-1.644 8.913-5.672l5.045-22.699h7.937l16.602 74.708h-41.14l4.325-19.457c.895-4.028-1.644-8.019-5.672-8.914-4.027-.9-8.019 1.644-8.913 5.672l-5.156 23.197h-8.838c-20.597 0-37.354 16.757-37.354 37.354v22.531c-13.941 1.263-24.903 13.01-24.903 27.275v200.825c0 4.126 3.344 7.471 7.471 7.471 4.126 0 7.471-3.345 7.471-7.471v-149.855h129.863c4.126 0 7.471-3.345 7.471-7.471s-3.344-7.471-7.471-7.471h-129.864v-36.029c0-6.866 5.586-12.451 12.451-12.451h159.377c6.866 0 12.451 5.586 12.451 12.451v36.029h-21.855c-4.126 0-7.471 3.345-7.471 7.471s3.344 7.471 7.471 7.471h21.855v202.477h-184.279v-20.059c0-4.126-3.344-7.471-7.471-7.471-4.126 0-7.471 3.345-7.471 7.471v73.911c0 15.105 12.289 27.393 27.393 27.393h159.377c15.104 0 27.393-12.288 27.393-27.393v-307.3c.001-14.264-10.961-26.011-24.902-27.274zm-37.354-.119v-23.409c0-4.126-3.344-7.471-7.471-7.471-4.126 0-7.471 3.345-7.471 7.471v23.409h-22.412v-23.409c0-4.126-3.344-7.471-7.471-7.471s-7.471 3.345-7.471 7.471v23.409h-22.412v-23.409c0-4.126-3.344-7.471-7.471-7.471-4.126 0-7.471 3.345-7.471 7.471v23.409h-22.412v-22.412c0-12.358 10.054-22.412 22.412-22.412h89.65c12.358 0 22.412 10.054 22.412 22.412v22.412zm34.864 347.144h-159.378c-6.866 0-12.451-5.586-12.451-12.451v-38.91h184.28v38.91c0 6.866-5.586 12.451-12.451 12.451z"/><path d="m188.763 338.978c0 29.797 24.242 54.039 54.039 54.039h26.397c29.797 0 54.039-24.242 54.039-54.039 0-21.478-12.597-40.066-30.788-48.773l14.193-12.016c3.15-2.666 3.541-7.38.875-10.529-2.667-3.149-7.379-3.542-10.529-.875l-21.839 18.488c-3.794-.418-7.839-.41-11.679-.335v-19.424c0-4.126-3.344-7.471-7.471-7.471s-7.471 3.345-7.471 7.471v19.424c-3.84-.075-7.885-.083-11.679.335l-21.839-18.488c-3.151-2.666-7.864-2.274-10.529.875s-2.274 7.863.875 10.529l14.193 12.016c-18.19 8.707-30.787 27.295-30.787 48.773zm54.039-39.097h26.397c21.558 0 39.097 17.539 39.097 39.097s-17.539 39.097-39.097 39.097h-26.397c-21.558 0-39.097-17.539-39.097-39.097-.001-21.558 17.538-39.097 39.097-39.097z"/></g></svg>