<svg id="Capa_1" enable-background="new 0 0 512 512" height="512" viewBox="0 0 512 512" width="512" xmlns="http://www.w3.org/2000/svg"><g><g><path d="m217.37 15.835h133.89c3.741 0 6.858 2.688 7.413 6.393l14.23 94.88c.558 3.72 3.757 6.389 7.407 6.389 4.14 0 8.045-4.491 7.427-8.613l-14.23-94.877c-1.661-11.11-11.018-19.172-22.247-19.172h-133.89c-4.143 0-7.5 3.357-7.5 7.5s3.358 7.5 7.5 7.5z"/><path d="m398.089 180.784c-.182-3.018-5.006-33.576-5.006-33.576-.616-4.11-4.444-6.941-8.557-6.325-4.11.616-6.942 4.447-6.325 8.557l3.502 23.347c1.443 9.379 2.214 13.362 2.214 23.795 0 56.055-35.869 105.065-89.259 121.965-26.084 8.055-51.298 6.368-77.476-.054-53.302-16.948-89.099-65.912-89.099-121.91 0-8.086.993-15.857 2.214-23.795l22.694-151.328c.557-3.714 3.684-6.411 7.437-6.411h24.018c4.156 0 7.525-3.368 7.525-7.525s-3.369-7.524-7.525-7.524h-24.018c-11.266 0-20.653 8.089-22.32 19.231l-22.675 151.191c-1.592 8.562-2.4 17.482-2.4 26.16 0 30.993 9.753 60.479 28.205 85.271 18.091 24.308 42.85 41.962 71.6 51.054 9.314 2.944 15.571 11.624 15.571 21.599v79.741c0 12.447-10.127 22.574-22.574 22.574h-10.033c-20.745 0-37.623 16.877-37.623 37.623v10.033c0 4.156 3.368 7.525 7.525 7.525h180.589c4.156 0 7.525-3.368 7.525-7.525v-10.033c0-20.745-16.877-37.623-37.623-37.623h-10.033c-12.447 0-22.574-10.127-22.574-22.574v-25.072c0-4.156-3.368-7.525-7.525-7.525-4.156 0-7.525 3.368-7.525 7.525v25.072c0 20.745 16.877 37.623 37.623 37.623h10.033c12.447 0 22.574 10.127 22.574 22.574v2.508h-165.538v-2.508c0-12.447 10.127-22.574 22.574-22.574h10.033c20.745 0 37.623-16.877 37.623-37.623v-79.741c0-5.778-1.278-11.295-3.6-16.244 10.687 1.586 21.391 1.713 32.112.379-2.211 4.851-3.43 10.233-3.43 15.864v21.882c0 4.156 3.368 7.525 7.525 7.525 4.156 0 7.525-3.368 7.525-7.525v-21.882c0-10.173 7.162-18.06 15.928-21.719 28.596-9.125 53.227-26.727 71.243-50.934 18.452-24.792 28.205-54.279 28.205-85.271-.002-5.232-.297-10.546-.879-15.797z"/></g><g><path d="m256 299.272c-56.519 0-102.5-45.981-102.5-102.5 0-6.504.628-13.047 1.842-19.438l6.915-46.112c2.239-6.288 6.298-7.85 12.175-4.686 41.213 33.823 67.153 23.127 97.189 10.744 20.38-8.402 43.48-17.923 72.147-12.307 3.112.61 5.504 3.112 5.975 6.248l7.019 46.667c1.145 6.161 1.738 12.652 1.738 18.883 0 56.52-45.981 102.501-102.5 102.501zm-80.785-153.314-5.059 33.732c-.864 5.917-1.656 10.914-1.656 17.082 0 48.248 39.252 87.5 87.5 87.5s87.5-39.252 87.5-87.5c0-6.265-.774-11.109-1.657-17.089l-6.122-40.823c-21.833-2.782-39.626 4.556-58.382 12.288-29.293 12.077-59.513 24.534-102.124-5.19z"/></g></g></svg>