<svg id="Capa_1" enable-background="new 0 0 512 512" height="512" viewBox="0 0 512 512" width="512" xmlns="http://www.w3.org/2000/svg"><g><g><path d="m256.005 512c-.125 0-.243 0-.369 0-51.29-.096-99.643-20.594-136.153-57.719-36.532-37.146-56.232-85.872-55.472-137.202.534-35.748 10.971-70.495 30.184-100.485 12.967-20.248 16.065-41.593 16.065-65.113 0-14.435 1.943-28.719 5.776-42.456 1.113-3.989 5.247-6.324 9.24-5.208 3.99 1.112 6.322 5.249 5.208 9.239-3.466 12.425-5.224 25.353-5.224 38.425 0 26.445-3.892 50.496-18.434 73.204-17.706 27.638-27.325 59.664-27.817 92.618-.7 47.285 17.472 92.197 51.168 126.461 33.675 34.241 78.24 53.148 125.487 53.236h.34c47.221 0 91.615-18.361 125.043-51.728 33.509-33.446 51.963-77.938 51.963-125.282 0-34.204-9.771-67.385-28.257-95.956-14.171-21.913-19.333-46.849-19.333-72.554 0-75.255-58.353-136.48-130.08-136.48-45.897 0-88.885 25.814-112.188 67.369-2.025 3.612-6.596 4.898-10.21 2.873-3.613-2.026-4.899-6.598-2.873-10.211 25.28-45.077 73.217-75.031 125.271-75.031 79.998 0 145.08 67.954 145.08 151.48 0 23.153 4.166 44.672 16.928 64.406 20.059 31.003 30.662 67.002 30.662 104.104 0 51.355-20.018 99.618-56.366 135.899-36.258 36.191-84.42 56.109-135.639 56.111z"/></g><g><path d="m256.01 472h-.28c-40.526-.074-78.78-16.329-107.728-45.772-28.978-29.45-44.602-68.002-43.991-108.551.421-28.295 8.673-55.79 23.863-79.512 16.948-26.452 22.386-55.866 22.386-86.685 0-61.47 47.139-111.48 105.08-111.48s105.08 50.01 105.08 111.48c-.108 7.813.205 15.619.939 23.416.482 4.114-2.462 7.84-6.576 8.322-4.122.467-7.84-2.463-8.322-6.576-.801-8.379-1.148-16.766-1.041-25.162 0-53.199-40.41-96.48-90.08-96.48s-90.08 43.281-90.08 96.48c0 33.863-6.219 65.845-24.755 94.775-13.683 21.368-21.116 46.143-21.496 71.646-.549 36.505 13.545 71.239 39.688 97.809 26.115 26.561 60.579 41.224 97.047 41.29h.266c36.592 0 70.993-14.249 96.867-40.124 25.88-25.88 40.133-60.288 40.133-96.886 0-26.473-7.555-52.144-21.847-74.236-7.053-10.908-12.757-22.639-16.957-34.868-1.345-3.918.74-8.184 4.658-9.529 3.917-1.342 8.185.74 9.529 4.658 3.804 11.079 8.974 21.708 15.365 31.593 15.865 24.524 24.251 53.013 24.251 82.383 0 40.604-15.813 78.779-44.526 107.493-28.706 28.706-66.875 44.516-107.473 44.516z"/></g><g><path d="m256 400.49c-3.765 0-7.542-.264-11.228-.783-4.102-.579-6.958-4.373-6.379-8.475s4.37-6.955 8.474-6.379c2.994.423 6.067.637 9.133.637 36.117 0 65.5-29.383 65.5-65.5s-29.383-65.5-65.5-65.5-65.5 29.383-65.5 65.5c0 20.858 10.109 40.662 27.041 52.975 3.35 2.436 4.091 7.126 1.655 10.477-2.437 3.349-7.127 4.092-10.477 1.654-20.801-15.125-33.219-39.464-33.219-65.105 0-44.388 36.112-80.5 80.5-80.5s80.5 36.112 80.5 80.5-36.112 80.499-80.5 80.499z"/></g></g></svg>