<svg id="Capa_1" enable-background="new 0 0 511.999 511.999" height="512" viewBox="0 0 511.999 511.999" width="512" xmlns="http://www.w3.org/2000/svg"><g><path d="m186.395 360.933c-58.116-18.339-109.5-56.327-126.674-117.046l27.66-20.623c21.992 4.096 43.394 11.889 62.151 24.201 69.357 45.545 151.836 47.065 227.835 17.635 3.863-1.496 5.781-5.84 4.286-9.702-1.496-3.862-5.84-5.783-9.702-4.286-80.23 31.068-150.29 25.772-214.187-16.187-20.167-13.236-43.067-21.678-66.688-26.206-2.106-5.096-4.293-10.075-6.531-14.835-1.763-3.748-6.229-5.361-9.979-3.596-3.748 1.762-5.358 6.229-3.596 9.979 1.877 3.994 3.724 8.15 5.51 12.409l-20.455 15.252c-7.984-34.575-17.833-54.333-37.471-75.359l13.595-11.169c7.57 7.969 14.699 17.055 21.249 27.086 2.265 3.471 6.913 4.444 10.38 2.181 3.469-2.265 4.445-6.912 2.181-10.38-8.498-13.017-17.942-24.593-28.071-34.407-2.739-2.654-7.035-2.828-9.979-.408l-25.17 20.68c-3.465 3.549-3.641 7.254-.526 11.114 23.646 23.499 32.976 42.596 41.597 85.14 13.817 68.099 75.46 113.075 138.073 132.833 3.813 1.136 6.949-.496 9.409-4.896 1.244-3.951-.947-8.164-4.897-9.41z"/><path d="m508.279 205.988-22.41-13.079c-2.433-1.419-5.455-1.356-7.825.162l-32.695 20.944c-3.455 2.128-31.124 17.932-41.322 22.952-3.716 1.829-5.246 6.325-3.416 10.041 1.829 3.716 6.322 5.248 10.041 3.416 10.527-5.182 35.494-19.347 37.255-20.406 9.11 9.49 23.533 17.541 37.347 17.225-40.465 101.206-167.96 140.068-267.051 121.62-4.073-.762-7.987 1.928-8.746 6s1.929 7.988 6 8.746c110.136 20.502 251.878-27.152 288.22-143.422l7.98-25.48c1.044-3.338-.357-6.955-3.378-8.719zm-17.641 25.637c-10.978 2.028-20.458-1.069-29.701-9.783l21.332-13.666 13.284 7.753z"/><path d="m126.097 274.063c-3.04-2.815-7.784-2.634-10.6.402-2.815 3.038-2.635 7.784.402 10.6 83.205 77.113 216.977 73.139 303.105 2.914 3.21-2.617 3.691-7.342 1.073-10.552-2.617-3.21-7.342-3.691-10.552-1.073-73.471 59.903-199.577 75.427-283.428-2.291z"/></g></svg>