<svg id="Capa_1" enable-background="new 0 0 512 512" height="512" viewBox="0 0 512 512" width="512" xmlns="http://www.w3.org/2000/svg"><g><path d="m365.16 260.24c2.086-1.391 3.34-3.732 3.34-6.24v-70.27c0-27.034-16.056-51.388-40.906-62.044l-24.552-10.521c-2.759-1.182-4.542-3.884-4.542-6.885v-22.736c7.142-.895 12.69-6.994 12.69-14.375v-8.9c0-4.143-3.358-7.5-7.5-7.5s-7.5 3.357-7.5 7.5v8.4h-80.38v-51.669h80.38v10.58c0 4.143 3.358 7.5 7.5 7.5s7.5-3.357 7.5-7.5v-11.08c0-7.995-6.505-14.5-14.5-14.5h-81.38c-7.995 0-14.5 6.505-14.5 14.5v52.67c0 7.381 5.548 13.479 12.69 14.375v22.736c0 3.001-1.783 5.703-4.544 6.886l-24.552 10.521c-24.848 10.655-40.904 35.009-40.904 62.043v70.269c0 2.508 1.253 4.85 3.34 6.24l11.66 7.773v105.143l-11.66 7.773c-2.086 1.391-3.34 3.732-3.34 6.24v87.33c0 20.678 16.822 37.5 37.5 37.5h150c20.678 0 37.5-16.822 37.5-37.5v-24.23c0-4.143-3.358-7.5-7.5-7.5s-7.5 3.357-7.5 7.5v24.23c0 12.406-10.093 22.5-22.5 22.5h-150c-12.407 0-22.5-10.094-22.5-22.5v-83.316l9.773-6.516h175.453l9.773 6.516v26.396c0 4.143 3.358 7.5 7.5 7.5s7.5-3.357 7.5-7.5v-30.41c0-2.508-1.253-4.85-3.34-6.24l-11.66-7.773v-105.142zm-191.66 11.26h67.477c-11.56 15.423-29.375 42.248-29.375 61.082 0 14.555 5.241 27.71 13.638 37.086h-51.74zm82.5 5.054c11.518 14.905 29.398 41.201 29.398 56.028 0 20.128-13.188 36.503-29.398 36.503s-29.398-16.375-29.398-36.503c0-14.827 17.88-41.123 29.398-56.028zm15.023-5.054h67.477v98.168h-51.74c8.397-9.376 13.638-22.531 13.638-37.086 0-18.834-17.815-45.659-29.375-61.082zm-80.709-136.026 24.548-10.52c8.285-3.548 13.638-11.662 13.638-20.674v-22.61h55v22.61c0 9.012 5.353 17.126 13.636 20.673l24.548 10.52c21.254 9.114 32.687 31.132 31.816 53.597-33.631-3.955-60.538 1.032-82.66 6.598-4.017 1.011-6.461 5.089-5.443 9.104 1.104 4.354 5.316 6.355 9.104 5.443 21.149-5.322 46.91-10.091 79-6.038v45.81l-9.771 6.514h-175.459l-9.771-6.514v-38.032c26.365 15.894 54.579 14.527 83.36 7.076 4.01-1.038 6.419-5.131 5.381-9.141s-5.129-6.418-9.141-5.381c-26.306 6.812-50.542 10.678-79.6-10.572-1.884-24.146 8.403-48.425 31.814-58.463z"/></g></svg>