<svg id="Capa_1" enable-background="new 0 0 512 512" height="512" viewBox="0 0 512 512" width="512" xmlns="http://www.w3.org/2000/svg"><g><path d="m485.477 229.477c0-78.485-39.467-150.703-105.574-193.182-3.499-2.25-8.16-1.236-10.409 2.265-2.249 3.5-1.235 8.16 2.265 10.409 61.775 39.694 98.654 107.174 98.654 180.509 0 118.228-96.185 214.413-214.413 214.413s-214.413-96.186-214.413-214.414 96.185-214.413 214.413-214.413c29.188 0 57.467 5.757 84.052 17.111 3.827 1.633 8.251-.143 9.885-3.969 1.634-3.825-.143-8.251-3.969-9.885-28.465-12.157-58.734-18.321-89.968-18.321-61.294 0-118.92 23.869-162.263 67.21-43.344 43.343-67.214 100.97-67.214 162.267 0 61.293 23.87 118.919 67.214 162.263 27.178 27.178 59.974 46.696 95.766 57.477l7.134 56.199c.478 3.763 3.679 6.584 7.472 6.584h103.782c3.793 0 6.995-2.821 7.472-6.584l7.134-56.199c35.793-10.781 68.588-30.299 95.766-57.477 43.344-43.344 67.214-100.97 67.214-162.263zm-184.223 267.459h-90.508l-5.533-43.591c33.298 7.487 68.277 7.487 101.575 0z"/><path d="m288.79 413.797c42.727-7.581 81.818-30.121 110.07-63.469 28.591-33.748 44.337-76.666 44.337-120.85 0-103.228-83.976-187.208-187.197-187.208s-187.197 83.98-187.197 187.207c0 49.683 19.328 96.507 54.425 131.846 35.08 35.322 81.735 54.976 131.372 55.341h.056c4.134 0 7.501-3.336 7.531-7.477.03-4.159-3.317-7.557-7.477-7.587-94.203-.692-170.843-77.907-170.843-172.123 0-94.92 77.218-172.143 172.133-172.143s172.133 77.223 172.133 172.143c0 83.612-59.709 154.892-141.976 169.487-4.096.727-6.827 4.636-6.1 8.733.728 4.094 4.63 6.821 8.733 6.1z"/><path d="m184.806 188.995c3.655-1.604 5.832-6.726 4.103-10.614-2.086-4.691-7.433-4.564-10.79-2.885-25.943 12.943-41.656 40.034-40.03 69.014.988 17.689 8.49 34.392 21.126 47.034 12.633 12.639 29.331 20.152 47.031 21.156 15.573.855 28.937 3.08 42.233 12.338 12.125 8.45 29.28 13.491 44.273 12.896 37.657-1.491 68.174-32.169 69.474-69.841.464-13.36-2.739-26.534-9.264-38.1-7.188-12.729-10.182-27.535-8.433-41.69 5.163-41.821-29.559-81.396-71.909-81.396-26.043 0-51.866 15.905-64.135 38.727-1.997 3.557-.796 8.075 2.731 10.164 3.58 2.119 8.2.938 10.319-2.642 10.832-18.39 29.094-31.185 51.08-31.185 33.528 0 61.062 31.286 56.963 64.484-2.142 17.335 1.503 35.426 10.264 50.942 5.162 9.149 7.696 19.582 7.329 30.174-1.031 29.834-25.196 54.129-55.015 55.31-12.633.504-24.771-3.029-35.067-10.205-15.072-10.495-32.07-14.029-50.004-15.017-29.134-1.653-52.33-24.863-53.956-53.991-1.286-22.956 11.145-44.411 31.677-54.673z"/><path d="m256 275.11c25.162 0 45.633-20.471 45.633-45.633 0-25.163-20.471-45.634-45.633-45.634s-45.633 20.471-45.633 45.634c0 25.162 20.471 45.633 45.633 45.633zm0-76.203c16.856 0 30.569 13.714 30.569 30.57s-13.713 30.569-30.569 30.569-30.569-13.713-30.569-30.569 13.713-30.57 30.569-30.57z"/></g></svg>