<svg id="Capa_1" enable-background="new 0 0 511.893 511.893" height="512" viewBox="0 0 511.893 511.893" width="512" xmlns="http://www.w3.org/2000/svg"><g><path d="m407.731 176.059c-18.756-18.754-42.371-30.874-68.004-35.194 9.204-7.061 16.762-15.667 22.673-25.817 18.649-1.408 37.066 6.021 53.737 13.747-3.659 6.825-8.351 12.974-14.005 18.344-3.003 2.853-3.125 7.6-.273 10.604 3.497 3.019 7.031 3.11 10.603.273 9.011-8.559 15.992-18.75 20.749-30.29 1.578-3.828-.245-8.211-4.072-9.791-18.561-8.484-39.179-17.715-59.783-18.074 3.167-9.159 4.832-18.876 4.832-28.853 0-4.143-3.358-7.5-7.5-7.5h-29.97c-20.768 0-40.378 7.151-55.98 20.045v-10.125c0-14.705-5.087-29.052-14.324-40.396-2.615-3.212-7.34-3.696-10.551-1.08-3.212 2.615-3.696 7.339-1.081 10.551 7.167 8.803 10.956 19.496 10.956 30.925v65.675h-18.49v-65.675c0-10.949-5.597-20.965-14.97-26.789l-24.241-15.071c-4.422-3.323-5.381-7.436-2.876-12.34 2.732-4.259 8.487-5.529 12.828-2.83l5.47 3.4c3.518 2.186 8.143 1.107 10.329-2.41 2.187-3.519 1.108-8.143-2.41-10.33l-5.471-3.4c-11.266-7.001-26.236-3.649-33.377 7.48-6.74 13.161-4.211 24.218 7.589 33.169l24.242 15.071c4.939 3.069 7.888 8.322 7.888 14.05v11.111c-15.787-13.388-36.057-21.031-57.06-21.031h-29.98c-4.142 0-7.5 3.357-7.5 7.5 0 9.819 1.664 19.606 4.857 28.852-20.705.354-41.174 9.718-59.808 18.075-3.827 1.58-5.65 5.963-4.072 9.791 4.76 11.548 11.746 21.739 20.763 30.293 3.573 2.835 7.107 2.742 10.603-.28 2.851-3.005 2.725-7.752-.28-10.603-5.658-5.366-10.352-11.514-14.012-18.341 16.57-7.722 35.181-15.152 53.749-13.746 5.904 10.152 13.458 18.757 22.66 25.817-25.632 4.321-49.248 16.441-68.003 35.193-53.112 53.105-47.417 144.645 10.622 191.78 25.781 20.998 45.27 48.657 56.371 79.995 10.719 37.73 45.549 64.059 84.792 64.059 39.242 0 74.073-26.328 84.792-64.059 11.101-31.338 30.59-58.997 56.397-80.017 57.153-48.122 64.429-137.928 10.591-191.758zm-126.995-71.45c13.933-16.618 34.191-26.102 55.98-26.102h22.092c-.928 9.16-3.562 17.948-7.73 26.004-.035.067-.068.134-.101.202-3.409 6.54-7.83 12.595-13.195 17.96-7.126 7.126-15.808 12.771-25.158 16.417l-31.888.008zm-119.907-.075c-4.238-8.202-6.833-16.928-7.75-26.026h22.106c22.12 0 43.266 10.214 57.06 27.437v33.155l-32.988-.008c-9.34-3.644-18.018-9.288-25.148-16.417-5.343-5.344-9.812-11.449-13.28-18.141zm268.887 162.848c0 34.462-15.982 66.697-42.079 88.826-27.982 22.791-49.118 52.826-61.122 86.858-.054.154-.104.31-.147.466-8.829 31.418-37.787 53.36-70.42 53.36-32.634 0-61.592-21.942-70.42-53.36-.044-.156-.093-.312-.147-.466-12.005-34.032-33.141-64.067-61.096-86.837-50.247-42.621-57.284-121.801-9.515-169.563 21.011-21.008 48.938-32.576 78.646-32.576h.029 125.005.029c29.705 0 57.636 11.569 78.646 32.576 21.276 21.273 32.614 50.822 32.591 80.716z"/><g><g><path d="m131.822 279.251c-4.142 0-7.5-3.357-7.5-7.5v-15.606c0-4.143 3.358-7.5 7.5-7.5s7.5 3.357 7.5 7.5v15.606c0 4.143-3.358 7.5-7.5 7.5z"/></g><g><path d="m193.884 279.251c-4.142 0-7.5-3.357-7.5-7.5v-15.606c0-4.143 3.358-7.5 7.5-7.5s7.5 3.357 7.5 7.5v15.606c0 4.143-3.358 7.5-7.5 7.5z"/></g><g><path d="m255.947 279.251c-4.142 0-7.5-3.357-7.5-7.5v-15.606c0-4.143 3.358-7.5 7.5-7.5s7.5 3.357 7.5 7.5v15.606c0 4.143-3.358 7.5-7.5 7.5z"/></g><g><path d="m318.009 279.251c-4.142 0-7.5-3.357-7.5-7.5v-15.606c0-4.143 3.358-7.5 7.5-7.5s7.5 3.357 7.5 7.5v15.606c0 4.143-3.358 7.5-7.5 7.5z"/></g><g><path d="m380.071 279.251c-4.142 0-7.5-3.357-7.5-7.5v-15.606c0-4.143 3.358-7.5 7.5-7.5s7.5 3.357 7.5 7.5v15.606c0 4.143-3.358 7.5-7.5 7.5z"/></g></g><g><g><path d="m160.822 219.3c-4.142 0-7.5-3.357-7.5-7.5v-15.606c0-4.143 3.358-7.5 7.5-7.5s7.5 3.357 7.5 7.5v15.606c0 4.142-3.358 7.5-7.5 7.5z"/></g><g><path d="m222.884 219.3c-4.142 0-7.5-3.357-7.5-7.5v-15.606c0-4.143 3.358-7.5 7.5-7.5s7.5 3.357 7.5 7.5v15.606c0 4.142-3.358 7.5-7.5 7.5z"/></g><g><path d="m284.947 219.3c-4.142 0-7.5-3.357-7.5-7.5v-15.606c0-4.143 3.358-7.5 7.5-7.5s7.5 3.357 7.5 7.5v15.606c0 4.142-3.358 7.5-7.5 7.5z"/></g><g><path d="m347.009 219.3c-4.142 0-7.5-3.357-7.5-7.5v-15.606c0-4.143 3.358-7.5 7.5-7.5s7.5 3.357 7.5 7.5v15.606c0 4.142-3.358 7.5-7.5 7.5z"/></g></g><g><g><path d="m160.822 337.602c-4.142 0-7.5-3.357-7.5-7.5v-15.606c0-4.143 3.358-7.5 7.5-7.5s7.5 3.357 7.5 7.5v15.606c0 4.142-3.358 7.5-7.5 7.5z"/></g><g><path d="m222.884 337.602c-4.142 0-7.5-3.357-7.5-7.5v-15.606c0-4.143 3.358-7.5 7.5-7.5s7.5 3.357 7.5 7.5v15.606c0 4.142-3.358 7.5-7.5 7.5z"/></g><g><path d="m284.947 337.602c-4.142 0-7.5-3.357-7.5-7.5v-15.606c0-4.143 3.358-7.5 7.5-7.5s7.5 3.357 7.5 7.5v15.606c0 4.142-3.358 7.5-7.5 7.5z"/></g><g><path d="m347.009 337.602c-4.142 0-7.5-3.357-7.5-7.5v-15.606c0-4.143 3.358-7.5 7.5-7.5s7.5 3.357 7.5 7.5v15.606c0 4.142-3.358 7.5-7.5 7.5z"/></g></g><g><path d="m193.884 389.775c-4.142 0-7.5-3.357-7.5-7.5v-15.606c0-4.143 3.358-7.5 7.5-7.5s7.5 3.357 7.5 7.5v15.606c0 4.143-3.358 7.5-7.5 7.5z"/></g><g><path d="m255.947 389.775c-4.142 0-7.5-3.357-7.5-7.5v-15.606c0-4.143 3.358-7.5 7.5-7.5s7.5 3.357 7.5 7.5v15.606c0 4.143-3.358 7.5-7.5 7.5z"/></g><g><path d="m318.009 389.775c-4.142 0-7.5-3.357-7.5-7.5v-15.606c0-4.143 3.358-7.5 7.5-7.5s7.5 3.357 7.5 7.5v15.606c0 4.143-3.358 7.5-7.5 7.5z"/></g><g><g><path d="m224.915 445.108c-4.142 0-7.5-3.357-7.5-7.5v-15.606c0-4.143 3.358-7.5 7.5-7.5s7.5 3.357 7.5 7.5v15.606c0 4.143-3.358 7.5-7.5 7.5z"/></g><g><path d="m286.977 445.108c-4.142 0-7.5-3.357-7.5-7.5v-15.606c0-4.143 3.358-7.5 7.5-7.5s7.5 3.357 7.5 7.5v15.606c0 4.143-3.358 7.5-7.5 7.5z"/></g></g></g></svg>