<svg id="Capa_1" enable-background="new 0 0 512 512" height="512" viewBox="0 0 512 512" width="512" xmlns="http://www.w3.org/2000/svg"><g><path d="m376.86 161.1h-2.417c-9.575-44.366-44.696-80.531-88.703-91.499v-12.681c0-4.143-3.357-7.5-7.5-7.5s-7.5 3.357-7.5 7.5v9.941c-9.447-1.122-18.894-1.122-28.34 0v-51.861h28.34v9.23c0 4.143 3.357 7.5 7.5 7.5s7.5-3.357 7.5-7.5v-16.73c0-4.143-3.357-7.5-7.5-7.5h-43.34c-4.142 0-7.5 3.357-7.5 7.5v62.101c-44.007 10.967-79.129 47.133-88.703 91.499h-3.557c-15.164 0-27.5 12.337-27.5 27.5v3.341c0 15.164 12.336 27.5 27.5 27.5h3.565l12.923 126.75c1.151 11.282 15.788 6.965 14.923-1.521l-4.715-46.248c34.65 13.442 69.21 4.874 103.392-5.109 28.197-9.044 58.52-13.765 86.809-2.124l-17.027 167.105h-156.88l-8.248-80.934c-.985-9.651-15.906-8.124-14.923 1.521l12.88 126.38c.39 3.827 3.614 6.739 7.461 6.739h162.54c3.848 0 7.071-2.912 7.461-6.739l29.124-285.82h2.436c15.163 0 27.5-12.336 27.5-27.5v-3.341c-.001-15.163-12.338-27.5-27.501-27.5zm-17.808 0h-73.312v-76.035c35.906 10.177 64.162 38.771 73.312 76.035zm-88.312-79.145v79.145h-28.34v-79.145c4.639-.614 23.701-.614 28.34 0zm-43.34 3.11v76.035h-73.312c9.15-37.264 37.405-65.858 73.312-76.035zm-67.304 196.293-6.313-61.917h73.617v68.513c-21.304 4.428-42.926 4.925-67.304-6.596zm110.644-61.918v56.707c-9.46 2.599-18.882 5.339-28.34 7.943v-64.65zm-88.666 277.56-2.416-23.707h153.823l-2.416 23.707zm207.286-305.06c0 6.893-5.607 12.5-12.5 12.5h-36.931c-4.143 0-7.5 3.357-7.5 7.5s3.357 7.5 7.5 7.5h19.418l-5.733 56.26c-24.626-9.09-46.792-7.803-67.875-3.27v-52.99h21.51c4.143 0 7.5-3.357 7.5-7.5s-3.357-7.5-7.5-7.5h-172.109c-6.893 0-12.5-5.607-12.5-12.5v-3.34c0-6.893 5.607-12.5 12.5-12.5h241.72c6.893 0 12.5 5.607 12.5 12.5z"/></g></svg>