<svg id="Layer_1" enable-background="new 0 0 512 512" height="512" viewBox="0 0 512 512" width="512" xmlns="http://www.w3.org/2000/svg"><g><path d="m338.132 400.517c-4.089-.682-7.95 2.083-8.628 6.169-.679 4.086 2.083 7.949 6.169 8.628 56.232 9.345 81.844 26.126 81.844 37.763 0 18.34-61.446 43.923-161.517 43.923-37.184 0-72.296-3.634-101.539-10.51-4.024-.947-8.069 1.551-9.018 5.584-.948 4.032 1.552 8.069 5.584 9.017 30.352 7.137 66.651 10.909 104.973 10.909 45.865 0 89.084-5.464 121.695-15.387 35.864-10.912 54.821-25.966 54.821-43.537.001-23.434-34.401-42.591-94.384-52.559z"/><path d="m123.004 476.74c-17.858-7.326-28.521-16.172-28.521-23.664 0-11.636 25.61-28.417 81.841-37.762 4.086-.679 6.848-4.542 6.169-8.628-.679-4.085-4.544-6.852-8.628-6.169-26.942 4.478-49.723 11.131-65.878 19.242-18.914 9.496-28.504 20.705-28.504 33.317 0 18.203 20.57 30.462 37.827 37.542.932.382 1.896.563 2.844.563 2.952 0 5.752-1.755 6.941-4.656 1.573-3.832-.259-8.213-4.091-9.785z"/><path d="m101.101 159.108c-4.059-.833-8.022 1.785-8.853 5.843-2.253 11.004-3.396 22.326-3.396 33.649 0 92.085 74.982 167.001 167.147 167.001s167.147-74.917 167.147-167.001-74.98-167-167.146-167c-66.319 0-126.414 39.207-153.098 99.884-1.668 3.792.055 8.217 3.846 9.884s8.218-.054 9.885-3.846c24.29-55.233 78.994-90.922 139.367-90.922 83.895 0 152.147 68.188 152.147 152.001s-68.252 152.002-152.147 152.002-152.147-68.188-152.147-152.001c0-10.315 1.04-20.624 3.091-30.641.831-4.059-1.785-8.022-5.843-8.853z"/><path d="m185.296 384.269 65.403 65.343c1.464 1.463 3.383 2.194 5.301 2.194s3.837-.731 5.301-2.194l65.403-65.344c42.161-16.039 77.932-46.273 100.846-85.285 2.098-3.571.903-8.167-2.668-10.265s-8.169-.904-10.266 2.668c-21.449 36.516-55.071 64.713-94.674 79.398-1.012.375-1.931.964-2.693 1.727l-61.249 61.193-61.249-61.193c-.763-.763-1.682-1.352-2.693-1.727-34.814-12.909-64.608-35.811-86.162-66.229-22.028-31.088-33.672-67.727-33.672-105.955 0-101.237 82.442-183.6 183.776-183.6 25.712 0 50.582 5.199 73.917 15.453 3.796 1.667 8.218-.057 9.884-3.849s-.057-8.217-3.849-9.883c-25.249-11.096-52.149-16.721-79.952-16.721-109.605 0-198.776 89.092-198.776 198.601 0 41.353 12.599 80.99 36.433 114.627 22.986 32.44 54.647 56.977 91.639 71.041z"/><path d="m366.997 33.824c-3.435-2.313-8.096-1.405-10.41 2.03s-1.406 8.096 2.029 10.411c50.82 34.237 81.16 91.186 81.16 152.337 0 22.246-3.937 43.983-11.699 64.61-1.459 3.876.501 8.202 4.378 9.661.87.327 1.763.482 2.641.482 3.033 0 5.889-1.854 7.021-4.86 8.4-22.321 12.66-45.836 12.66-69.893-.001-66.15-32.816-127.749-87.78-164.778z"/><path d="m332.7 282.8c4.143 0 7.5-3.358 7.5-7.5v-153.398c0-4.142-3.357-7.5-7.5-7.5h-153.399c-4.143 0-7.5 3.358-7.5 7.5v153.398c0 4.142 3.357 7.5 7.5 7.5zm-54.2-153.398v57.064l-19.146-9.573c-1.056-.528-2.205-.792-3.354-.792s-2.299.264-3.354.792l-19.146 9.573v-57.064zm-91.699 0h31.699v69.199c0 2.599 1.346 5.013 3.557 6.38 2.213 1.367 4.973 1.49 7.298.328l26.645-13.323 26.646 13.323c1.059.529 2.208.792 3.354.792 1.371 0 2.738-.376 3.943-1.12 2.211-1.367 3.557-3.781 3.557-6.38v-69.199h31.7v138.398h-138.399z"/><path d="m276 228.658h-40c-4.143 0-7.5 3.358-7.5 7.5s3.357 7.5 7.5 7.5h40c4.143 0 7.5-3.358 7.5-7.5s-3.357-7.5-7.5-7.5z"/></g></svg>